<svg width="16" height="16" viewBox="0 0 16 16" fill="none" xmlns="http://www.w3.org/2000/svg">
<path d="M14 8.8283V13.3335H14.6667V14.6668H1.33333V13.3335H2V8.8283C1.196 8.29016 0.666664 7.37363 0.666664 6.3335C0.666664 5.78207 0.816284 5.25097 1.08881 4.79847L2.89686 1.66683C3.01595 1.46056 3.23604 1.3335 3.47421 1.3335H12.5258C12.7639 1.3335 12.9841 1.46056 13.1031 1.66683L14.905 4.78798C15.1837 5.25097 15.3333 5.78207 15.3333 6.3335C15.3333 7.37363 14.804 8.29016 14 8.8283ZM12.6667 9.31516C12.5572 9.3273 12.446 9.3335 12.3333 9.3335C11.4939 9.3335 10.7193 8.9855 10.1667 8.40896C9.61406 8.9855 8.8394 9.3335 8 9.3335C7.1606 9.3335 6.38593 8.9855 5.83333 8.40896C5.28073 8.9855 4.50607 9.3335 3.66666 9.3335C3.554 9.3335 3.44278 9.3273 3.33333 9.31516V13.3335H12.6667V9.31516ZM3.8591 2.66683L2.23732 5.47564C2.08272 5.73245 2 6.0261 2 6.3335C2 7.25396 2.74619 8.00016 3.66666 8.00016C4.35397 8.00016 4.96311 7.58036 5.21452 6.95316C5.43826 6.39498 6.2284 6.39498 6.45214 6.95316C6.70353 7.58036 7.31266 8.00016 8 8.00016C8.68733 8.00016 9.29646 7.58036 9.54786 6.95316C9.7716 6.39498 10.5617 6.39498 10.7855 6.95316C11.0369 7.58036 11.646 8.00016 12.3333 8.00016C13.2538 8.00016 14 7.25396 14 6.3335C14 6.0261 13.9173 5.73245 13.7565 5.46514L12.1409 2.66683H3.8591Z" fill="black" fill-opacity="0.9"/>
</svg>
